<?xml version="1.0" standalone="no"?><svg xmlns="http://www.w3.org/2000/svg" viewBox="0 0 1440 320"><path fill="#e4eee6" fill-opacity="1" d="M0,192L26.7,160C53.3,128,107,64,160,48C213.3,32,267,64,320,106.7C373.3,149,427,203,480,197.3C533.3,192,587,128,640,101.3C693.3,75,747,85,800,122.7C853.3,160,907,224,960,213.3C1013.3,203,1067,117,1120,90.7C1173.3,64,1227,96,1280,101.3C1333.3,107,1387,85,1413,74.7L1440,64L1440,0L1413.3,0C1386.7,0,1333,0,1280,0C1226.7,0,1173,0,1120,0C1066.7,0,1013,0,960,0C906.7,0,853,0,800,0C746.7,0,693,0,640,0C586.7,0,533,0,480,0C426.7,0,373,0,320,0C266.7,0,213,0,160,0C106.7,0,53,0,27,0L0,0Z"></path></svg>