<?xml version="1.0" standalone="no"?><svg xmlns="http://www.w3.org/2000/svg" viewBox="0 0 1440 320"><path fill="#5000ca" fill-opacity="1" d="M0,288L18.5,261.3C36.9,235,74,181,111,160C147.7,139,185,149,222,138.7C258.5,128,295,96,332,90.7C369.2,85,406,107,443,144C480,181,517,235,554,250.7C590.8,267,628,245,665,240C701.5,235,738,245,775,234.7C812.3,224,849,192,886,186.7C923.1,181,960,203,997,186.7C1033.8,171,1071,117,1108,106.7C1144.6,96,1182,128,1218,149.3C1255.4,171,1292,181,1329,202.7C1366.2,224,1403,256,1422,272L1440,288L1440,0L1421.5,0C1403.1,0,1366,0,1329,0C1292.3,0,1255,0,1218,0C1181.5,0,1145,0,1108,0C1070.8,0,1034,0,997,0C960,0,923,0,886,0C849.2,0,812,0,775,0C738.5,0,702,0,665,0C627.7,0,591,0,554,0C516.9,0,480,0,443,0C406.2,0,369,0,332,0C295.4,0,258,0,222,0C184.6,0,148,0,111,0C73.8,0,37,0,18,0L0,0Z"></path></svg>